solid OpenSCAD_Model
  facet normal 0.998027 0.062791 0
    outer loop
      vertex 5 0 2
      vertex 4.96057 0.626666 0
      vertex 4.96057 0.626666 2
    endloop
  endfacet
  facet normal 0.998027 0.062791 0
    outer loop
      vertex 4.96057 0.626666 0
      vertex 5 0 2
      vertex 5 0 0
    endloop
  endfacet
  facet normal -0.998027 0.062791 0
    outer loop
      vertex -5 0 0
      vertex -4.96057 0.626666 2
      vertex -4.96057 0.626666 0
    endloop
  endfacet
  facet normal -0.998027 0.062791 0
    outer loop
      vertex -4.96057 0.626666 2
      vertex -5 0 0
      vertex -5 0 2
    endloop
  endfacet
  facet normal 0 1 -0
    outer loop
      vertex 0.313952 4.99013 0
      vertex -0.313952 4.99013 2
      vertex 0.313952 4.99013 2
    endloop
  endfacet
  facet normal 0 1 0
    outer loop
      vertex -0.313952 4.99013 2
      vertex 0.313952 4.99013 0
      vertex -0.313952 4.99013 0
    endloop
  endfacet
  facet normal 0 -1 0
    outer loop
      vertex -0.313952 -4.99013 0
      vertex 0.313952 -4.99013 2
      vertex -0.313952 -4.99013 2
    endloop
  endfacet
  facet normal 0 -1 -0
    outer loop
      vertex 0.313952 -4.99013 2
      vertex -0.313952 -4.99013 0
      vertex 0.313952 -4.99013 0
    endloop
  endfacet
  facet normal 0.684547 -0.728969 0
    outer loop
      vertex 3.18712 -3.85257 0
      vertex 3.64484 -3.42274 2
      vertex 3.18712 -3.85257 2
    endloop
  endfacet
  facet normal 0.684547 -0.728969 0
    outer loop
      vertex 3.64484 -3.42274 2
      vertex 3.18712 -3.85257 0
      vertex 3.64484 -3.42274 0
    endloop
  endfacet
  facet normal 0.684547 0.728969 -0
    outer loop
      vertex 3.64484 3.42274 0
      vertex 3.18712 3.85257 2
      vertex 3.64484 3.42274 2
    endloop
  endfacet
  facet normal 0.684547 0.728969 0
    outer loop
      vertex 3.18712 3.85257 2
      vertex 3.64484 3.42274 0
      vertex 3.18712 3.85257 0
    endloop
  endfacet
  facet normal -0.684547 0.728969 0
    outer loop
      vertex -3.18712 3.85257 0
      vertex -3.64484 3.42274 2
      vertex -3.18712 3.85257 2
    endloop
  endfacet
  facet normal -0.684547 0.728969 0
    outer loop
      vertex -3.64484 3.42274 2
      vertex -3.18712 3.85257 0
      vertex -3.64484 3.42274 0
    endloop
  endfacet
  facet normal -0.368126 0.929776 0
    outer loop
      vertex -1.54508 4.75528 0
      vertex -2.1289 4.52413 2
      vertex -1.54508 4.75528 2
    endloop
  endfacet
  facet normal -0.368126 0.929776 0
    outer loop
      vertex -2.1289 4.52413 2
      vertex -1.54508 4.75528 0
      vertex -2.1289 4.52413 0
    endloop
  endfacet
  facet normal 0.904827 0.425779 0
    outer loop
      vertex 4.64888 1.84062 2
      vertex 4.38153 2.40877 0
      vertex 4.38153 2.40877 2
    endloop
  endfacet
  facet normal 0.904827 0.425779 0
    outer loop
      vertex 4.38153 2.40877 0
      vertex 4.64888 1.84062 2
      vertex 4.64888 1.84062 0
    endloop
  endfacet
  facet normal 0.982287 0.187381 0
    outer loop
      vertex 4.96057 0.626666 2
      vertex 4.84292 1.24345 0
      vertex 4.84292 1.24345 2
    endloop
  endfacet
  facet normal 0.982287 0.187381 0
    outer loop
      vertex 4.84292 1.24345 0
      vertex 4.96057 0.626666 2
      vertex 4.96057 0.626666 0
    endloop
  endfacet
  facet normal 0.368126 0.929776 -0
    outer loop
      vertex 2.1289 4.52413 0
      vertex 1.54508 4.75528 2
      vertex 2.1289 4.52413 2
    endloop
  endfacet
  facet normal 0.368126 0.929776 0
    outer loop
      vertex 1.54508 4.75528 2
      vertex 2.1289 4.52413 0
      vertex 1.54508 4.75528 0
    endloop
  endfacet
  facet normal 0.24869 0.968583 -0
    outer loop
      vertex 1.54508 4.75528 0
      vertex 0.936906 4.91144 2
      vertex 1.54508 4.75528 2
    endloop
  endfacet
  facet normal 0.24869 0.968583 0
    outer loop
      vertex 0.936906 4.91144 2
      vertex 1.54508 4.75528 0
      vertex 0.936906 4.91144 0
    endloop
  endfacet
  facet normal 0.481754 0.876307 -0
    outer loop
      vertex 2.67913 4.22164 0
      vertex 2.1289 4.52413 2
      vertex 2.67913 4.22164 2
    endloop
  endfacet
  facet normal 0.481754 0.876307 0
    outer loop
      vertex 2.1289 4.52413 2
      vertex 2.67913 4.22164 0
      vertex 2.1289 4.52413 0
    endloop
  endfacet
  facet normal -0.844329 0.535826 0
    outer loop
      vertex -4.38153 2.40877 0
      vertex -4.04508 2.93893 2
      vertex -4.04508 2.93893 0
    endloop
  endfacet
  facet normal -0.844329 0.535826 0
    outer loop
      vertex -4.04508 2.93893 2
      vertex -4.38153 2.40877 0
      vertex -4.38153 2.40877 2
    endloop
  endfacet
  facet normal -0.770513 0.637424 0
    outer loop
      vertex -4.04508 2.93893 0
      vertex -3.64484 3.42274 2
      vertex -3.64484 3.42274 0
    endloop
  endfacet
  facet normal -0.770513 0.637424 0
    outer loop
      vertex -3.64484 3.42274 2
      vertex -4.04508 2.93893 0
      vertex -4.04508 2.93893 2
    endloop
  endfacet
  facet normal -0.951056 0.309018 0
    outer loop
      vertex -4.84292 1.24345 0
      vertex -4.64888 1.84062 2
      vertex -4.64888 1.84062 0
    endloop
  endfacet
  facet normal -0.951056 0.309018 0
    outer loop
      vertex -4.64888 1.84062 2
      vertex -4.84292 1.24345 0
      vertex -4.84292 1.24345 2
    endloop
  endfacet
  facet normal -0.587785 0.809017 0
    outer loop
      vertex -2.67913 4.22164 0
      vertex -3.18712 3.85257 2
      vertex -2.67913 4.22164 2
    endloop
  endfacet
  facet normal -0.587785 0.809017 0
    outer loop
      vertex -3.18712 3.85257 2
      vertex -2.67913 4.22164 0
      vertex -3.18712 3.85257 0
    endloop
  endfacet
  facet normal -0.24869 0.968583 0
    outer loop
      vertex -0.936906 4.91144 0
      vertex -1.54508 4.75528 2
      vertex -0.936906 4.91144 2
    endloop
  endfacet
  facet normal -0.24869 0.968583 0
    outer loop
      vertex -1.54508 4.75528 2
      vertex -0.936906 4.91144 0
      vertex -1.54508 4.75528 0
    endloop
  endfacet
  facet normal 0.951056 -0.309018 0
    outer loop
      vertex 4.64888 -1.84062 2
      vertex 4.84292 -1.24345 0
      vertex 4.84292 -1.24345 2
    endloop
  endfacet
  facet normal 0.951056 -0.309018 0
    outer loop
      vertex 4.84292 -1.24345 0
      vertex 4.64888 -1.84062 2
      vertex 4.64888 -1.84062 0
    endloop
  endfacet
  facet normal 0.125333 -0.992115 0
    outer loop
      vertex 0.313952 -4.99013 0
      vertex 0.936906 -4.91144 2
      vertex 0.313952 -4.99013 2
    endloop
  endfacet
  facet normal 0.125333 -0.992115 0
    outer loop
      vertex 0.936906 -4.91144 2
      vertex 0.313952 -4.99013 0
      vertex 0.936906 -4.91144 0
    endloop
  endfacet
  facet normal 0.951056 0.309018 0
    outer loop
      vertex 4.84292 1.24345 2
      vertex 4.64888 1.84062 0
      vertex 4.64888 1.84062 2
    endloop
  endfacet
  facet normal 0.951056 0.309018 0
    outer loop
      vertex 4.64888 1.84062 0
      vertex 4.84292 1.24345 2
      vertex 4.84292 1.24345 0
    endloop
  endfacet
  facet normal 0.770513 0.637424 0
    outer loop
      vertex 4.04508 2.93893 2
      vertex 3.64484 3.42274 0
      vertex 3.64484 3.42274 2
    endloop
  endfacet
  facet normal 0.770513 0.637424 0
    outer loop
      vertex 3.64484 3.42274 0
      vertex 4.04508 2.93893 2
      vertex 4.04508 2.93893 0
    endloop
  endfacet
  facet normal 0.844329 0.535826 0
    outer loop
      vertex 4.38153 2.40877 2
      vertex 4.04508 2.93893 0
      vertex 4.04508 2.93893 2
    endloop
  endfacet
  facet normal 0.844329 0.535826 0
    outer loop
      vertex 4.04508 2.93893 0
      vertex 4.38153 2.40877 2
      vertex 4.38153 2.40877 0
    endloop
  endfacet
  facet normal 0.125333 0.992115 -0
    outer loop
      vertex 0.936906 4.91144 0
      vertex 0.313952 4.99013 2
      vertex 0.936906 4.91144 2
    endloop
  endfacet
  facet normal 0.125333 0.992115 0
    outer loop
      vertex 0.313952 4.99013 2
      vertex 0.936906 4.91144 0
      vertex 0.313952 4.99013 0
    endloop
  endfacet
  facet normal 0.587785 0.809017 -0
    outer loop
      vertex 3.18712 3.85257 0
      vertex 2.67913 4.22164 2
      vertex 3.18712 3.85257 2
    endloop
  endfacet
  facet normal 0.587785 0.809017 0
    outer loop
      vertex 2.67913 4.22164 2
      vertex 3.18712 3.85257 0
      vertex 2.67913 4.22164 0
    endloop
  endfacet
  facet normal -0.904827 0.425779 0
    outer loop
      vertex -4.64888 1.84062 0
      vertex -4.38153 2.40877 2
      vertex -4.38153 2.40877 0
    endloop
  endfacet
  facet normal -0.904827 0.425779 0
    outer loop
      vertex -4.38153 2.40877 2
      vertex -4.64888 1.84062 0
      vertex -4.64888 1.84062 2
    endloop
  endfacet
  facet normal -0.982287 0.187381 0
    outer loop
      vertex -4.96057 0.626666 0
      vertex -4.84292 1.24345 2
      vertex -4.84292 1.24345 0
    endloop
  endfacet
  facet normal -0.982287 0.187381 0
    outer loop
      vertex -4.84292 1.24345 2
      vertex -4.96057 0.626666 0
      vertex -4.96057 0.626666 2
    endloop
  endfacet
  facet normal 0 0 1
    outer loop
      vertex 2 0 2
      vertex 5 0 2
      vertex 4.96057 0.626666 2
    endloop
  endfacet
  facet normal 0 0 1
    outer loop
      vertex 1.98423 0.250666 2
      vertex 4.96057 0.626666 2
      vertex 4.84292 1.24345 2
    endloop
  endfacet
  facet normal 0 0 1
    outer loop
      vertex 5 0 2
      vertex 2 0 2
      vertex 4.96057 -0.626666 2
    endloop
  endfacet
  facet normal 0 0 1
    outer loop
      vertex 1.93717 0.497379 2
      vertex 4.84292 1.24345 2
      vertex 4.64888 1.84062 2
    endloop
  endfacet
  facet normal -0 0 1
    outer loop
      vertex 1.98423 -0.250666 2
      vertex 4.96057 -0.626666 2
      vertex 2 0 2
    endloop
  endfacet
  facet normal 0 0 1
    outer loop
      vertex 1.85955 0.736249 2
      vertex 4.64888 1.84062 2
      vertex 4.38153 2.40877 2
    endloop
  endfacet
  facet normal 0 0 1
    outer loop
      vertex 4.96057 -0.626666 2
      vertex 1.98423 -0.250666 2
      vertex 4.84292 -1.24345 2
    endloop
  endfacet
  facet normal 0 0 1
    outer loop
      vertex 1.75261 0.963507 2
      vertex 4.38153 2.40877 2
      vertex 4.04508 2.93893 2
    endloop
  endfacet
  facet normal -0 0 1
    outer loop
      vertex 1.93717 -0.497379 2
      vertex 4.84292 -1.24345 2
      vertex 1.98423 -0.250666 2
    endloop
  endfacet
  facet normal 0 0 1
    outer loop
      vertex 1.61803 1.17557 2
      vertex 4.04508 2.93893 2
      vertex 3.64484 3.42274 2
    endloop
  endfacet
  facet normal 0 0 1
    outer loop
      vertex 4.84292 -1.24345 2
      vertex 1.93717 -0.497379 2
      vertex 4.64888 -1.84062 2
    endloop
  endfacet
  facet normal 0 0 1
    outer loop
      vertex 1.45794 1.36909 2
      vertex 3.64484 3.42274 2
      vertex 3.18712 3.85257 2
    endloop
  endfacet
  facet normal -0 0 1
    outer loop
      vertex 1.85955 -0.736249 2
      vertex 4.64888 -1.84062 2
      vertex 1.93717 -0.497379 2
    endloop
  endfacet
  facet normal 0 0 1
    outer loop
      vertex 1.27485 1.54103 2
      vertex 3.18712 3.85257 2
      vertex 2.67913 4.22164 2
    endloop
  endfacet
  facet normal 0 0 1
    outer loop
      vertex 4.64888 -1.84062 2
      vertex 1.85955 -0.736249 2
      vertex 4.38153 -2.40877 2
    endloop
  endfacet
  facet normal 0 0 1
    outer loop
      vertex 1.07165 1.68865 2
      vertex 2.67913 4.22164 2
      vertex 2.1289 4.52413 2
    endloop
  endfacet
  facet normal -0 0 1
    outer loop
      vertex 1.75261 -0.963507 2
      vertex 4.38153 -2.40877 2
      vertex 1.85955 -0.736249 2
    endloop
  endfacet
  facet normal 0 0 1
    outer loop
      vertex 4.38153 -2.40877 2
      vertex 1.75261 -0.963507 2
      vertex 4.04508 -2.93893 2
    endloop
  endfacet
  facet normal 0 0 1
    outer loop
      vertex 4.96057 0.626666 2
      vertex 1.98423 0.250666 2
      vertex 2 0 2
    endloop
  endfacet
  facet normal 0 0 1
    outer loop
      vertex 4.84292 1.24345 2
      vertex 1.93717 0.497379 2
      vertex 1.98423 0.250666 2
    endloop
  endfacet
  facet normal 0 0 1
    outer loop
      vertex 4.64888 1.84062 2
      vertex 1.85955 0.736249 2
      vertex 1.93717 0.497379 2
    endloop
  endfacet
  facet normal 0 0 1
    outer loop
      vertex 4.38153 2.40877 2
      vertex 1.75261 0.963507 2
      vertex 1.85955 0.736249 2
    endloop
  endfacet
  facet normal 0 0 1
    outer loop
      vertex 4.04508 2.93893 2
      vertex 1.61803 1.17557 2
      vertex 1.75261 0.963507 2
    endloop
  endfacet
  facet normal 0 0 1
    outer loop
      vertex 0.851558 1.80965 2
      vertex 2.1289 4.52413 2
      vertex 1.54508 4.75528 2
    endloop
  endfacet
  facet normal 0 0 1
    outer loop
      vertex 3.64484 3.42274 2
      vertex 1.45794 1.36909 2
      vertex 1.61803 1.17557 2
    endloop
  endfacet
  facet normal 0 0 1
    outer loop
      vertex 3.18712 3.85257 2
      vertex 1.27485 1.54103 2
      vertex 1.45794 1.36909 2
    endloop
  endfacet
  facet normal 0 0 1
    outer loop
      vertex 2.67913 4.22164 2
      vertex 1.07165 1.68865 2
      vertex 1.27485 1.54103 2
    endloop
  endfacet
  facet normal 0 0 1
    outer loop
      vertex 0.618033 1.90211 2
      vertex 1.54508 4.75528 2
      vertex 0.936906 4.91144 2
    endloop
  endfacet
  facet normal 0 0 1
    outer loop
      vertex 2.1289 4.52413 2
      vertex 0.851558 1.80965 2
      vertex 1.07165 1.68865 2
    endloop
  endfacet
  facet normal 0 0 1
    outer loop
      vertex 1.54508 4.75528 2
      vertex 0.618033 1.90211 2
      vertex 0.851558 1.80965 2
    endloop
  endfacet
  facet normal 0 0 1
    outer loop
      vertex 0.936906 4.91144 2
      vertex 0.374763 1.96457 2
      vertex 0.618033 1.90211 2
    endloop
  endfacet
  facet normal 0 0 1
    outer loop
      vertex 0.313952 4.99013 2
      vertex 0.374763 1.96457 2
      vertex 0.936906 4.91144 2
    endloop
  endfacet
  facet normal 0 0 1
    outer loop
      vertex 0.313952 4.99013 2
      vertex 0.125581 1.99605 2
      vertex 0.374763 1.96457 2
    endloop
  endfacet
  facet normal 0 0 1
    outer loop
      vertex 0.313952 4.99013 2
      vertex -0.125581 1.99605 2
      vertex 0.125581 1.99605 2
    endloop
  endfacet
  facet normal -0 0 1
    outer loop
      vertex -0.313952 4.99013 2
      vertex -0.125581 1.99605 2
      vertex 0.313952 4.99013 2
    endloop
  endfacet
  facet normal 0 0 1
    outer loop
      vertex -0.313952 4.99013 2
      vertex -0.374763 1.96457 2
      vertex -0.125581 1.99605 2
    endloop
  endfacet
  facet normal -0 0 1
    outer loop
      vertex -0.936906 4.91144 2
      vertex -0.374763 1.96457 2
      vertex -0.313952 4.99013 2
    endloop
  endfacet
  facet normal 0 0 1
    outer loop
      vertex -0.374763 1.96457 2
      vertex -0.936906 4.91144 2
      vertex -0.618033 1.90211 2
    endloop
  endfacet
  facet normal -0 0 1
    outer loop
      vertex -1.54508 4.75528 2
      vertex -0.618033 1.90211 2
      vertex -0.936906 4.91144 2
    endloop
  endfacet
  facet normal 0 0 1
    outer loop
      vertex -0.618033 1.90211 2
      vertex -1.54508 4.75528 2
      vertex -0.851558 1.80965 2
    endloop
  endfacet
  facet normal -0 0 1
    outer loop
      vertex -2.1289 4.52413 2
      vertex -0.851558 1.80965 2
      vertex -1.54508 4.75528 2
    endloop
  endfacet
  facet normal 0 0 1
    outer loop
      vertex -0.851558 1.80965 2
      vertex -2.1289 4.52413 2
      vertex -1.07165 1.68865 2
    endloop
  endfacet
  facet normal -0 0 1
    outer loop
      vertex -2.67913 4.22164 2
      vertex -1.07165 1.68865 2
      vertex -2.1289 4.52413 2
    endloop
  endfacet
  facet normal 0 0 1
    outer loop
      vertex -1.07165 1.68865 2
      vertex -2.67913 4.22164 2
      vertex -1.27485 1.54103 2
    endloop
  endfacet
  facet normal -0 0 1
    outer loop
      vertex -3.18712 3.85257 2
      vertex -1.27485 1.54103 2
      vertex -2.67913 4.22164 2
    endloop
  endfacet
  facet normal 0 0 1
    outer loop
      vertex -1.27485 1.54103 2
      vertex -3.18712 3.85257 2
      vertex -1.45794 1.36909 2
    endloop
  endfacet
  facet normal -0 0 1
    outer loop
      vertex -3.64484 3.42274 2
      vertex -1.45794 1.36909 2
      vertex -3.18712 3.85257 2
    endloop
  endfacet
  facet normal 0 0 1
    outer loop
      vertex -1.45794 1.36909 2
      vertex -3.64484 3.42274 2
      vertex -1.61803 1.17557 2
    endloop
  endfacet
  facet normal 0 0 1
    outer loop
      vertex -1.61803 1.17557 2
      vertex -4.04508 2.93893 2
      vertex -1.75261 0.963507 2
    endloop
  endfacet
  facet normal -0 0 1
    outer loop
      vertex -4.04508 2.93893 2
      vertex -1.61803 1.17557 2
      vertex -3.64484 3.42274 2
    endloop
  endfacet
  facet normal -0 0 1
    outer loop
      vertex 1.61803 -1.17557 2
      vertex 4.04508 -2.93893 2
      vertex 1.75261 -0.963507 2
    endloop
  endfacet
  facet normal 0 0 1
    outer loop
      vertex 4.04508 -2.93893 2
      vertex 1.61803 -1.17557 2
      vertex 3.64484 -3.42274 2
    endloop
  endfacet
  facet normal -0 0 1
    outer loop
      vertex 1.45794 -1.36909 2
      vertex 3.64484 -3.42274 2
      vertex 1.61803 -1.17557 2
    endloop
  endfacet
  facet normal 0 0 1
    outer loop
      vertex 3.64484 -3.42274 2
      vertex 1.45794 -1.36909 2
      vertex 3.18712 -3.85257 2
    endloop
  endfacet
  facet normal -0 0 1
    outer loop
      vertex 1.27485 -1.54103 2
      vertex 3.18712 -3.85257 2
      vertex 1.45794 -1.36909 2
    endloop
  endfacet
  facet normal 0 0 1
    outer loop
      vertex 3.18712 -3.85257 2
      vertex 1.27485 -1.54103 2
      vertex 2.67913 -4.22164 2
    endloop
  endfacet
  facet normal -0 0 1
    outer loop
      vertex 1.07165 -1.68865 2
      vertex 2.67913 -4.22164 2
      vertex 1.27485 -1.54103 2
    endloop
  endfacet
  facet normal 0 0 1
    outer loop
      vertex 2.67913 -4.22164 2
      vertex 1.07165 -1.68865 2
      vertex 2.1289 -4.52413 2
    endloop
  endfacet
  facet normal -0 0 1
    outer loop
      vertex 0.851558 -1.80965 2
      vertex 2.1289 -4.52413 2
      vertex 1.07165 -1.68865 2
    endloop
  endfacet
  facet normal 0 0 1
    outer loop
      vertex 2.1289 -4.52413 2
      vertex 0.851558 -1.80965 2
      vertex 1.54508 -4.75528 2
    endloop
  endfacet
  facet normal -0 0 1
    outer loop
      vertex 0.618033 -1.90211 2
      vertex 1.54508 -4.75528 2
      vertex 0.851558 -1.80965 2
    endloop
  endfacet
  facet normal 0 0 1
    outer loop
      vertex 1.54508 -4.75528 2
      vertex 0.618033 -1.90211 2
      vertex 0.936906 -4.91144 2
    endloop
  endfacet
  facet normal -0 0 1
    outer loop
      vertex 0.374763 -1.96457 2
      vertex 0.936906 -4.91144 2
      vertex 0.618033 -1.90211 2
    endloop
  endfacet
  facet normal 0 0 1
    outer loop
      vertex 0.374763 -1.96457 2
      vertex 0.313952 -4.99013 2
      vertex 0.936906 -4.91144 2
    endloop
  endfacet
  facet normal -0 0 1
    outer loop
      vertex 0.125581 -1.99605 2
      vertex 0.313952 -4.99013 2
      vertex 0.374763 -1.96457 2
    endloop
  endfacet
  facet normal -0 0 1
    outer loop
      vertex -0.125581 -1.99605 2
      vertex 0.313952 -4.99013 2
      vertex 0.125581 -1.99605 2
    endloop
  endfacet
  facet normal 0 0 1
    outer loop
      vertex -0.125581 -1.99605 2
      vertex -0.313952 -4.99013 2
      vertex 0.313952 -4.99013 2
    endloop
  endfacet
  facet normal 0 0 1
    outer loop
      vertex -0.374763 -1.96457 2
      vertex -0.313952 -4.99013 2
      vertex -0.125581 -1.99605 2
    endloop
  endfacet
  facet normal 0 0 1
    outer loop
      vertex -0.936906 -4.91144 2
      vertex -0.374763 -1.96457 2
      vertex -0.618033 -1.90211 2
    endloop
  endfacet
  facet normal 0 0 1
    outer loop
      vertex -1.54508 -4.75528 2
      vertex -0.618033 -1.90211 2
      vertex -0.851558 -1.80965 2
    endloop
  endfacet
  facet normal 0 0 1
    outer loop
      vertex -0.374763 -1.96457 2
      vertex -0.936906 -4.91144 2
      vertex -0.313952 -4.99013 2
    endloop
  endfacet
  facet normal 0 0 1
    outer loop
      vertex -2.1289 -4.52413 2
      vertex -0.851558 -1.80965 2
      vertex -1.07165 -1.68865 2
    endloop
  endfacet
  facet normal 0 0 1
    outer loop
      vertex -2.67913 -4.22164 2
      vertex -1.07165 -1.68865 2
      vertex -1.27485 -1.54103 2
    endloop
  endfacet
  facet normal 0 0 1
    outer loop
      vertex -3.18712 -3.85257 2
      vertex -1.27485 -1.54103 2
      vertex -1.45794 -1.36909 2
    endloop
  endfacet
  facet normal 0 0 1
    outer loop
      vertex -0.618033 -1.90211 2
      vertex -1.54508 -4.75528 2
      vertex -0.936906 -4.91144 2
    endloop
  endfacet
  facet normal 0 0 1
    outer loop
      vertex -3.64484 -3.42274 2
      vertex -1.45794 -1.36909 2
      vertex -1.61803 -1.17557 2
    endloop
  endfacet
  facet normal 0 0 1
    outer loop
      vertex -4.04508 -2.93893 2
      vertex -1.61803 -1.17557 2
      vertex -1.75261 -0.963507 2
    endloop
  endfacet
  facet normal 0 0 1
    outer loop
      vertex -4.38153 -2.40877 2
      vertex -1.75261 -0.963507 2
      vertex -1.85955 -0.736249 2
    endloop
  endfacet
  facet normal 0 0 1
    outer loop
      vertex -4.64888 -1.84062 2
      vertex -1.85955 -0.736249 2
      vertex -1.93717 -0.497379 2
    endloop
  endfacet
  facet normal 0 0 1
    outer loop
      vertex -4.84292 -1.24345 2
      vertex -1.93717 -0.497379 2
      vertex -1.98423 -0.250666 2
    endloop
  endfacet
  facet normal 0 0 1
    outer loop
      vertex -0.851558 -1.80965 2
      vertex -2.1289 -4.52413 2
      vertex -1.54508 -4.75528 2
    endloop
  endfacet
  facet normal 0 0 1
    outer loop
      vertex -4.96057 -0.626666 2
      vertex -1.98423 -0.250666 2
      vertex -2 0 2
    endloop
  endfacet
  facet normal -0 0 1
    outer loop
      vertex -4.38153 2.40877 2
      vertex -1.75261 0.963507 2
      vertex -4.04508 2.93893 2
    endloop
  endfacet
  facet normal 0 0 1
    outer loop
      vertex -1.75261 0.963507 2
      vertex -4.38153 2.40877 2
      vertex -1.85955 0.736249 2
    endloop
  endfacet
  facet normal 0 0 1
    outer loop
      vertex -1.07165 -1.68865 2
      vertex -2.67913 -4.22164 2
      vertex -2.1289 -4.52413 2
    endloop
  endfacet
  facet normal -0 0 1
    outer loop
      vertex -4.64888 1.84062 2
      vertex -1.85955 0.736249 2
      vertex -4.38153 2.40877 2
    endloop
  endfacet
  facet normal 0 0 1
    outer loop
      vertex -1.27485 -1.54103 2
      vertex -3.18712 -3.85257 2
      vertex -2.67913 -4.22164 2
    endloop
  endfacet
  facet normal 0 0 1
    outer loop
      vertex -1.85955 0.736249 2
      vertex -4.64888 1.84062 2
      vertex -1.93717 0.497379 2
    endloop
  endfacet
  facet normal 0 0 1
    outer loop
      vertex -1.45794 -1.36909 2
      vertex -3.64484 -3.42274 2
      vertex -3.18712 -3.85257 2
    endloop
  endfacet
  facet normal -0 0 1
    outer loop
      vertex -4.84292 1.24345 2
      vertex -1.93717 0.497379 2
      vertex -4.64888 1.84062 2
    endloop
  endfacet
  facet normal 0 0 1
    outer loop
      vertex -1.61803 -1.17557 2
      vertex -4.04508 -2.93893 2
      vertex -3.64484 -3.42274 2
    endloop
  endfacet
  facet normal 0 0 1
    outer loop
      vertex -1.93717 0.497379 2
      vertex -4.84292 1.24345 2
      vertex -1.98423 0.250666 2
    endloop
  endfacet
  facet normal 0 0 1
    outer loop
      vertex -1.75261 -0.963507 2
      vertex -4.38153 -2.40877 2
      vertex -4.04508 -2.93893 2
    endloop
  endfacet
  facet normal -0 0 1
    outer loop
      vertex -4.96057 0.626666 2
      vertex -1.98423 0.250666 2
      vertex -4.84292 1.24345 2
    endloop
  endfacet
  facet normal 0 0 1
    outer loop
      vertex -1.85955 -0.736249 2
      vertex -4.64888 -1.84062 2
      vertex -4.38153 -2.40877 2
    endloop
  endfacet
  facet normal 0 0 1
    outer loop
      vertex -1.98423 0.250666 2
      vertex -4.96057 0.626666 2
      vertex -2 0 2
    endloop
  endfacet
  facet normal 0 0 1
    outer loop
      vertex -1.93717 -0.497379 2
      vertex -4.84292 -1.24345 2
      vertex -4.64888 -1.84062 2
    endloop
  endfacet
  facet normal 0 0 1
    outer loop
      vertex -5 0 2
      vertex -2 0 2
      vertex -4.96057 0.626666 2
    endloop
  endfacet
  facet normal 0 0 1
    outer loop
      vertex -1.98423 -0.250666 2
      vertex -4.96057 -0.626666 2
      vertex -4.84292 -1.24345 2
    endloop
  endfacet
  facet normal 0 0 1
    outer loop
      vertex -2 0 2
      vertex -5 0 2
      vertex -4.96057 -0.626666 2
    endloop
  endfacet
  facet normal -0.481754 0.876307 0
    outer loop
      vertex -2.1289 4.52413 0
      vertex -2.67913 4.22164 2
      vertex -2.1289 4.52413 2
    endloop
  endfacet
  facet normal -0.481754 0.876307 0
    outer loop
      vertex -2.67913 4.22164 2
      vertex -2.1289 4.52413 0
      vertex -2.67913 4.22164 0
    endloop
  endfacet
  facet normal -0.125333 0.992115 0
    outer loop
      vertex -0.313952 4.99013 0
      vertex -0.936906 4.91144 2
      vertex -0.313952 4.99013 2
    endloop
  endfacet
  facet normal -0.125333 0.992115 0
    outer loop
      vertex -0.936906 4.91144 2
      vertex -0.313952 4.99013 0
      vertex -0.936906 4.91144 0
    endloop
  endfacet
  facet normal 0.998027 -0.062791 0
    outer loop
      vertex 4.96057 -0.626666 2
      vertex 5 0 0
      vertex 5 0 2
    endloop
  endfacet
  facet normal 0.998027 -0.062791 0
    outer loop
      vertex 5 0 0
      vertex 4.96057 -0.626666 2
      vertex 4.96057 -0.626666 0
    endloop
  endfacet
  facet normal 0.982287 -0.187381 0
    outer loop
      vertex 4.84292 -1.24345 2
      vertex 4.96057 -0.626666 0
      vertex 4.96057 -0.626666 2
    endloop
  endfacet
  facet normal 0.982287 -0.187381 0
    outer loop
      vertex 4.96057 -0.626666 0
      vertex 4.84292 -1.24345 2
      vertex 4.84292 -1.24345 0
    endloop
  endfacet
  facet normal 0 0 -1
    outer loop
      vertex 2 0 0
      vertex 5 0 0
      vertex 4.96057 -0.626666 0
    endloop
  endfacet
  facet normal 0 0 -1
    outer loop
      vertex 1.98423 -0.250666 0
      vertex 4.96057 -0.626666 0
      vertex 4.84292 -1.24345 0
    endloop
  endfacet
  facet normal 0 0 -1
    outer loop
      vertex 5 0 0
      vertex 2 0 0
      vertex 4.96057 0.626666 0
    endloop
  endfacet
  facet normal 0 0 -1
    outer loop
      vertex 1.93717 -0.497379 0
      vertex 4.84292 -1.24345 0
      vertex 4.64888 -1.84062 0
    endloop
  endfacet
  facet normal 0 0 -1
    outer loop
      vertex 1.98423 0.250666 0
      vertex 4.96057 0.626666 0
      vertex 2 0 0
    endloop
  endfacet
  facet normal 0 0 -1
    outer loop
      vertex 1.85955 -0.736249 0
      vertex 4.64888 -1.84062 0
      vertex 4.38153 -2.40877 0
    endloop
  endfacet
  facet normal -0 0 -1
    outer loop
      vertex 4.96057 0.626666 0
      vertex 1.98423 0.250666 0
      vertex 4.84292 1.24345 0
    endloop
  endfacet
  facet normal 0 0 -1
    outer loop
      vertex 1.75261 -0.963507 0
      vertex 4.38153 -2.40877 0
      vertex 4.04508 -2.93893 0
    endloop
  endfacet
  facet normal 0 0 -1
    outer loop
      vertex 1.93717 0.497379 0
      vertex 4.84292 1.24345 0
      vertex 1.98423 0.250666 0
    endloop
  endfacet
  facet normal 0 0 -1
    outer loop
      vertex 1.61803 -1.17557 0
      vertex 4.04508 -2.93893 0
      vertex 3.64484 -3.42274 0
    endloop
  endfacet
  facet normal -0 0 -1
    outer loop
      vertex 4.84292 1.24345 0
      vertex 1.93717 0.497379 0
      vertex 4.64888 1.84062 0
    endloop
  endfacet
  facet normal 0 0 -1
    outer loop
      vertex 1.45794 -1.36909 0
      vertex 3.64484 -3.42274 0
      vertex 3.18712 -3.85257 0
    endloop
  endfacet
  facet normal 0 0 -1
    outer loop
      vertex 1.85955 0.736249 0
      vertex 4.64888 1.84062 0
      vertex 1.93717 0.497379 0
    endloop
  endfacet
  facet normal 0 0 -1
    outer loop
      vertex 1.27485 -1.54103 0
      vertex 3.18712 -3.85257 0
      vertex 2.67913 -4.22164 0
    endloop
  endfacet
  facet normal -0 0 -1
    outer loop
      vertex 4.64888 1.84062 0
      vertex 1.85955 0.736249 0
      vertex 4.38153 2.40877 0
    endloop
  endfacet
  facet normal 0 0 -1
    outer loop
      vertex 1.07165 -1.68865 0
      vertex 2.67913 -4.22164 0
      vertex 2.1289 -4.52413 0
    endloop
  endfacet
  facet normal 0 0 -1
    outer loop
      vertex 1.75261 0.963507 0
      vertex 4.38153 2.40877 0
      vertex 1.85955 0.736249 0
    endloop
  endfacet
  facet normal -0 0 -1
    outer loop
      vertex 4.38153 2.40877 0
      vertex 1.75261 0.963507 0
      vertex 4.04508 2.93893 0
    endloop
  endfacet
  facet normal 0 0 -1
    outer loop
      vertex 4.96057 -0.626666 0
      vertex 1.98423 -0.250666 0
      vertex 2 0 0
    endloop
  endfacet
  facet normal 0 0 -1
    outer loop
      vertex 4.84292 -1.24345 0
      vertex 1.93717 -0.497379 0
      vertex 1.98423 -0.250666 0
    endloop
  endfacet
  facet normal 0 0 -1
    outer loop
      vertex 4.64888 -1.84062 0
      vertex 1.85955 -0.736249 0
      vertex 1.93717 -0.497379 0
    endloop
  endfacet
  facet normal 0 0 -1
    outer loop
      vertex 4.38153 -2.40877 0
      vertex 1.75261 -0.963507 0
      vertex 1.85955 -0.736249 0
    endloop
  endfacet
  facet normal 0 0 -1
    outer loop
      vertex 4.04508 -2.93893 0
      vertex 1.61803 -1.17557 0
      vertex 1.75261 -0.963507 0
    endloop
  endfacet
  facet normal 0 0 -1
    outer loop
      vertex 0.851558 -1.80965 0
      vertex 2.1289 -4.52413 0
      vertex 1.54508 -4.75528 0
    endloop
  endfacet
  facet normal 0 0 -1
    outer loop
      vertex 3.64484 -3.42274 0
      vertex 1.45794 -1.36909 0
      vertex 1.61803 -1.17557 0
    endloop
  endfacet
  facet normal 0 0 -1
    outer loop
      vertex 3.18712 -3.85257 0
      vertex 1.27485 -1.54103 0
      vertex 1.45794 -1.36909 0
    endloop
  endfacet
  facet normal 0 0 -1
    outer loop
      vertex 2.67913 -4.22164 0
      vertex 1.07165 -1.68865 0
      vertex 1.27485 -1.54103 0
    endloop
  endfacet
  facet normal 0 0 -1
    outer loop
      vertex 0.618033 -1.90211 0
      vertex 1.54508 -4.75528 0
      vertex 0.936906 -4.91144 0
    endloop
  endfacet
  facet normal 0 0 -1
    outer loop
      vertex 2.1289 -4.52413 0
      vertex 0.851558 -1.80965 0
      vertex 1.07165 -1.68865 0
    endloop
  endfacet
  facet normal 0 0 -1
    outer loop
      vertex 1.54508 -4.75528 0
      vertex 0.618033 -1.90211 0
      vertex 0.851558 -1.80965 0
    endloop
  endfacet
  facet normal 0 0 -1
    outer loop
      vertex 0.936906 -4.91144 0
      vertex 0.374763 -1.96457 0
      vertex 0.618033 -1.90211 0
    endloop
  endfacet
  facet normal 0 0 -1
    outer loop
      vertex 0.313952 -4.99013 0
      vertex 0.374763 -1.96457 0
      vertex 0.936906 -4.91144 0
    endloop
  endfacet
  facet normal 0 0 -1
    outer loop
      vertex 0.313952 -4.99013 0
      vertex 0.125581 -1.99605 0
      vertex 0.374763 -1.96457 0
    endloop
  endfacet
  facet normal 0 0 -1
    outer loop
      vertex 0.313952 -4.99013 0
      vertex -0.125581 -1.99605 0
      vertex 0.125581 -1.99605 0
    endloop
  endfacet
  facet normal 0 0 -1
    outer loop
      vertex -0.313952 -4.99013 0
      vertex -0.125581 -1.99605 0
      vertex 0.313952 -4.99013 0
    endloop
  endfacet
  facet normal 0 0 -1
    outer loop
      vertex -0.313952 -4.99013 0
      vertex -0.374763 -1.96457 0
      vertex -0.125581 -1.99605 0
    endloop
  endfacet
  facet normal 0 0 -1
    outer loop
      vertex -0.936906 -4.91144 0
      vertex -0.374763 -1.96457 0
      vertex -0.313952 -4.99013 0
    endloop
  endfacet
  facet normal -0 0 -1
    outer loop
      vertex -0.374763 -1.96457 0
      vertex -0.936906 -4.91144 0
      vertex -0.618033 -1.90211 0
    endloop
  endfacet
  facet normal 0 0 -1
    outer loop
      vertex -1.54508 -4.75528 0
      vertex -0.618033 -1.90211 0
      vertex -0.936906 -4.91144 0
    endloop
  endfacet
  facet normal -0 0 -1
    outer loop
      vertex -0.618033 -1.90211 0
      vertex -1.54508 -4.75528 0
      vertex -0.851558 -1.80965 0
    endloop
  endfacet
  facet normal 0 0 -1
    outer loop
      vertex -2.1289 -4.52413 0
      vertex -0.851558 -1.80965 0
      vertex -1.54508 -4.75528 0
    endloop
  endfacet
  facet normal -0 0 -1
    outer loop
      vertex -0.851558 -1.80965 0
      vertex -2.1289 -4.52413 0
      vertex -1.07165 -1.68865 0
    endloop
  endfacet
  facet normal 0 0 -1
    outer loop
      vertex -2.67913 -4.22164 0
      vertex -1.07165 -1.68865 0
      vertex -2.1289 -4.52413 0
    endloop
  endfacet
  facet normal -0 0 -1
    outer loop
      vertex -1.07165 -1.68865 0
      vertex -2.67913 -4.22164 0
      vertex -1.27485 -1.54103 0
    endloop
  endfacet
  facet normal 0 0 -1
    outer loop
      vertex -3.18712 -3.85257 0
      vertex -1.27485 -1.54103 0
      vertex -2.67913 -4.22164 0
    endloop
  endfacet
  facet normal -0 0 -1
    outer loop
      vertex -1.27485 -1.54103 0
      vertex -3.18712 -3.85257 0
      vertex -1.45794 -1.36909 0
    endloop
  endfacet
  facet normal 0 0 -1
    outer loop
      vertex -3.64484 -3.42274 0
      vertex -1.45794 -1.36909 0
      vertex -3.18712 -3.85257 0
    endloop
  endfacet
  facet normal -0 0 -1
    outer loop
      vertex -1.45794 -1.36909 0
      vertex -3.64484 -3.42274 0
      vertex -1.61803 -1.17557 0
    endloop
  endfacet
  facet normal -0 0 -1
    outer loop
      vertex -1.61803 -1.17557 0
      vertex -4.04508 -2.93893 0
      vertex -1.75261 -0.963507 0
    endloop
  endfacet
  facet normal 0 0 -1
    outer loop
      vertex -4.04508 -2.93893 0
      vertex -1.61803 -1.17557 0
      vertex -3.64484 -3.42274 0
    endloop
  endfacet
  facet normal 0 0 -1
    outer loop
      vertex 1.61803 1.17557 0
      vertex 4.04508 2.93893 0
      vertex 1.75261 0.963507 0
    endloop
  endfacet
  facet normal -0 0 -1
    outer loop
      vertex 4.04508 2.93893 0
      vertex 1.61803 1.17557 0
      vertex 3.64484 3.42274 0
    endloop
  endfacet
  facet normal 0 0 -1
    outer loop
      vertex 1.45794 1.36909 0
      vertex 3.64484 3.42274 0
      vertex 1.61803 1.17557 0
    endloop
  endfacet
  facet normal -0 0 -1
    outer loop
      vertex 3.64484 3.42274 0
      vertex 1.45794 1.36909 0
      vertex 3.18712 3.85257 0
    endloop
  endfacet
  facet normal 0 0 -1
    outer loop
      vertex 1.27485 1.54103 0
      vertex 3.18712 3.85257 0
      vertex 1.45794 1.36909 0
    endloop
  endfacet
  facet normal -0 0 -1
    outer loop
      vertex 3.18712 3.85257 0
      vertex 1.27485 1.54103 0
      vertex 2.67913 4.22164 0
    endloop
  endfacet
  facet normal 0 0 -1
    outer loop
      vertex 1.07165 1.68865 0
      vertex 2.67913 4.22164 0
      vertex 1.27485 1.54103 0
    endloop
  endfacet
  facet normal -0 0 -1
    outer loop
      vertex 2.67913 4.22164 0
      vertex 1.07165 1.68865 0
      vertex 2.1289 4.52413 0
    endloop
  endfacet
  facet normal 0 0 -1
    outer loop
      vertex 0.851558 1.80965 0
      vertex 2.1289 4.52413 0
      vertex 1.07165 1.68865 0
    endloop
  endfacet
  facet normal -0 0 -1
    outer loop
      vertex 2.1289 4.52413 0
      vertex 0.851558 1.80965 0
      vertex 1.54508 4.75528 0
    endloop
  endfacet
  facet normal 0 0 -1
    outer loop
      vertex 0.618033 1.90211 0
      vertex 1.54508 4.75528 0
      vertex 0.851558 1.80965 0
    endloop
  endfacet
  facet normal -0 0 -1
    outer loop
      vertex 1.54508 4.75528 0
      vertex 0.618033 1.90211 0
      vertex 0.936906 4.91144 0
    endloop
  endfacet
  facet normal 0 0 -1
    outer loop
      vertex 0.374763 1.96457 0
      vertex 0.936906 4.91144 0
      vertex 0.618033 1.90211 0
    endloop
  endfacet
  facet normal 0 0 -1
    outer loop
      vertex 0.374763 1.96457 0
      vertex 0.313952 4.99013 0
      vertex 0.936906 4.91144 0
    endloop
  endfacet
  facet normal 0 0 -1
    outer loop
      vertex 0.125581 1.99605 0
      vertex 0.313952 4.99013 0
      vertex 0.374763 1.96457 0
    endloop
  endfacet
  facet normal 0 0 -1
    outer loop
      vertex -0.125581 1.99605 0
      vertex 0.313952 4.99013 0
      vertex 0.125581 1.99605 0
    endloop
  endfacet
  facet normal 0 0 -1
    outer loop
      vertex -0.125581 1.99605 0
      vertex -0.313952 4.99013 0
      vertex 0.313952 4.99013 0
    endloop
  endfacet
  facet normal 0 0 -1
    outer loop
      vertex -0.374763 1.96457 0
      vertex -0.313952 4.99013 0
      vertex -0.125581 1.99605 0
    endloop
  endfacet
  facet normal 0 0 -1
    outer loop
      vertex -0.936906 4.91144 0
      vertex -0.374763 1.96457 0
      vertex -0.618033 1.90211 0
    endloop
  endfacet
  facet normal 0 0 -1
    outer loop
      vertex -1.54508 4.75528 0
      vertex -0.618033 1.90211 0
      vertex -0.851558 1.80965 0
    endloop
  endfacet
  facet normal 0 0 -1
    outer loop
      vertex -0.374763 1.96457 0
      vertex -0.936906 4.91144 0
      vertex -0.313952 4.99013 0
    endloop
  endfacet
  facet normal 0 0 -1
    outer loop
      vertex -2.1289 4.52413 0
      vertex -0.851558 1.80965 0
      vertex -1.07165 1.68865 0
    endloop
  endfacet
  facet normal 0 0 -1
    outer loop
      vertex -2.67913 4.22164 0
      vertex -1.07165 1.68865 0
      vertex -1.27485 1.54103 0
    endloop
  endfacet
  facet normal 0 0 -1
    outer loop
      vertex -3.18712 3.85257 0
      vertex -1.27485 1.54103 0
      vertex -1.45794 1.36909 0
    endloop
  endfacet
  facet normal 0 0 -1
    outer loop
      vertex -0.618033 1.90211 0
      vertex -1.54508 4.75528 0
      vertex -0.936906 4.91144 0
    endloop
  endfacet
  facet normal 0 0 -1
    outer loop
      vertex -3.64484 3.42274 0
      vertex -1.45794 1.36909 0
      vertex -1.61803 1.17557 0
    endloop
  endfacet
  facet normal 0 0 -1
    outer loop
      vertex -4.04508 2.93893 0
      vertex -1.61803 1.17557 0
      vertex -1.75261 0.963507 0
    endloop
  endfacet
  facet normal 0 0 -1
    outer loop
      vertex -4.38153 2.40877 0
      vertex -1.75261 0.963507 0
      vertex -1.85955 0.736249 0
    endloop
  endfacet
  facet normal 0 0 -1
    outer loop
      vertex -4.64888 1.84062 0
      vertex -1.85955 0.736249 0
      vertex -1.93717 0.497379 0
    endloop
  endfacet
  facet normal 0 0 -1
    outer loop
      vertex -4.84292 1.24345 0
      vertex -1.93717 0.497379 0
      vertex -1.98423 0.250666 0
    endloop
  endfacet
  facet normal 0 0 -1
    outer loop
      vertex -0.851558 1.80965 0
      vertex -2.1289 4.52413 0
      vertex -1.54508 4.75528 0
    endloop
  endfacet
  facet normal 0 0 -1
    outer loop
      vertex -4.96057 0.626666 0
      vertex -1.98423 0.250666 0
      vertex -2 0 0
    endloop
  endfacet
  facet normal 0 0 -1
    outer loop
      vertex -4.38153 -2.40877 0
      vertex -1.75261 -0.963507 0
      vertex -4.04508 -2.93893 0
    endloop
  endfacet
  facet normal -0 0 -1
    outer loop
      vertex -1.75261 -0.963507 0
      vertex -4.38153 -2.40877 0
      vertex -1.85955 -0.736249 0
    endloop
  endfacet
  facet normal 0 0 -1
    outer loop
      vertex -1.07165 1.68865 0
      vertex -2.67913 4.22164 0
      vertex -2.1289 4.52413 0
    endloop
  endfacet
  facet normal 0 0 -1
    outer loop
      vertex -4.64888 -1.84062 0
      vertex -1.85955 -0.736249 0
      vertex -4.38153 -2.40877 0
    endloop
  endfacet
  facet normal 0 0 -1
    outer loop
      vertex -1.27485 1.54103 0
      vertex -3.18712 3.85257 0
      vertex -2.67913 4.22164 0
    endloop
  endfacet
  facet normal -0 0 -1
    outer loop
      vertex -1.85955 -0.736249 0
      vertex -4.64888 -1.84062 0
      vertex -1.93717 -0.497379 0
    endloop
  endfacet
  facet normal 0 0 -1
    outer loop
      vertex -1.45794 1.36909 0
      vertex -3.64484 3.42274 0
      vertex -3.18712 3.85257 0
    endloop
  endfacet
  facet normal 0 0 -1
    outer loop
      vertex -4.84292 -1.24345 0
      vertex -1.93717 -0.497379 0
      vertex -4.64888 -1.84062 0
    endloop
  endfacet
  facet normal 0 0 -1
    outer loop
      vertex -1.61803 1.17557 0
      vertex -4.04508 2.93893 0
      vertex -3.64484 3.42274 0
    endloop
  endfacet
  facet normal -0 0 -1
    outer loop
      vertex -1.93717 -0.497379 0
      vertex -4.84292 -1.24345 0
      vertex -1.98423 -0.250666 0
    endloop
  endfacet
  facet normal 0 0 -1
    outer loop
      vertex -1.75261 0.963507 0
      vertex -4.38153 2.40877 0
      vertex -4.04508 2.93893 0
    endloop
  endfacet
  facet normal 0 0 -1
    outer loop
      vertex -4.96057 -0.626666 0
      vertex -1.98423 -0.250666 0
      vertex -4.84292 -1.24345 0
    endloop
  endfacet
  facet normal 0 0 -1
    outer loop
      vertex -1.85955 0.736249 0
      vertex -4.64888 1.84062 0
      vertex -4.38153 2.40877 0
    endloop
  endfacet
  facet normal -0 0 -1
    outer loop
      vertex -1.98423 -0.250666 0
      vertex -4.96057 -0.626666 0
      vertex -2 0 0
    endloop
  endfacet
  facet normal 0 0 -1
    outer loop
      vertex -1.93717 0.497379 0
      vertex -4.84292 1.24345 0
      vertex -4.64888 1.84062 0
    endloop
  endfacet
  facet normal 0 0 -1
    outer loop
      vertex -5 0 0
      vertex -2 0 0
      vertex -4.96057 -0.626666 0
    endloop
  endfacet
  facet normal 0 0 -1
    outer loop
      vertex -1.98423 0.250666 0
      vertex -4.96057 0.626666 0
      vertex -4.84292 1.24345 0
    endloop
  endfacet
  facet normal 0 0 -1
    outer loop
      vertex -2 0 0
      vertex -5 0 0
      vertex -4.96057 0.626666 0
    endloop
  endfacet
  facet normal 0.587785 -0.809017 0
    outer loop
      vertex 2.67913 -4.22164 0
      vertex 3.18712 -3.85257 2
      vertex 2.67913 -4.22164 2
    endloop
  endfacet
  facet normal 0.587785 -0.809017 0
    outer loop
      vertex 3.18712 -3.85257 2
      vertex 2.67913 -4.22164 0
      vertex 3.18712 -3.85257 0
    endloop
  endfacet
  facet normal 0.368126 -0.929776 0
    outer loop
      vertex 1.54508 -4.75528 0
      vertex 2.1289 -4.52413 2
      vertex 1.54508 -4.75528 2
    endloop
  endfacet
  facet normal 0.368126 -0.929776 0
    outer loop
      vertex 2.1289 -4.52413 2
      vertex 1.54508 -4.75528 0
      vertex 2.1289 -4.52413 0
    endloop
  endfacet
  facet normal 0.904827 -0.425779 0
    outer loop
      vertex 4.38153 -2.40877 2
      vertex 4.64888 -1.84062 0
      vertex 4.64888 -1.84062 2
    endloop
  endfacet
  facet normal 0.904827 -0.425779 0
    outer loop
      vertex 4.64888 -1.84062 0
      vertex 4.38153 -2.40877 2
      vertex 4.38153 -2.40877 0
    endloop
  endfacet
  facet normal -0.770513 -0.637424 0
    outer loop
      vertex -3.64484 -3.42274 0
      vertex -4.04508 -2.93893 2
      vertex -4.04508 -2.93893 0
    endloop
  endfacet
  facet normal -0.770513 -0.637424 0
    outer loop
      vertex -4.04508 -2.93893 2
      vertex -3.64484 -3.42274 0
      vertex -3.64484 -3.42274 2
    endloop
  endfacet
  facet normal -0.951056 -0.309018 0
    outer loop
      vertex -4.64888 -1.84062 0
      vertex -4.84292 -1.24345 2
      vertex -4.84292 -1.24345 0
    endloop
  endfacet
  facet normal -0.951056 -0.309018 0
    outer loop
      vertex -4.84292 -1.24345 2
      vertex -4.64888 -1.84062 0
      vertex -4.64888 -1.84062 2
    endloop
  endfacet
  facet normal 0.481754 -0.876307 0
    outer loop
      vertex 2.1289 -4.52413 0
      vertex 2.67913 -4.22164 2
      vertex 2.1289 -4.52413 2
    endloop
  endfacet
  facet normal 0.481754 -0.876307 0
    outer loop
      vertex 2.67913 -4.22164 2
      vertex 2.1289 -4.52413 0
      vertex 2.67913 -4.22164 0
    endloop
  endfacet
  facet normal 0.24869 -0.968583 0
    outer loop
      vertex 0.936906 -4.91144 0
      vertex 1.54508 -4.75528 2
      vertex 0.936906 -4.91144 2
    endloop
  endfacet
  facet normal 0.24869 -0.968583 0
    outer loop
      vertex 1.54508 -4.75528 2
      vertex 0.936906 -4.91144 0
      vertex 1.54508 -4.75528 0
    endloop
  endfacet
  facet normal 0.844329 -0.535826 0
    outer loop
      vertex 4.04508 -2.93893 2
      vertex 4.38153 -2.40877 0
      vertex 4.38153 -2.40877 2
    endloop
  endfacet
  facet normal 0.844329 -0.535826 0
    outer loop
      vertex 4.38153 -2.40877 0
      vertex 4.04508 -2.93893 2
      vertex 4.04508 -2.93893 0
    endloop
  endfacet
  facet normal 0.770513 -0.637424 0
    outer loop
      vertex 3.64484 -3.42274 2
      vertex 4.04508 -2.93893 0
      vertex 4.04508 -2.93893 2
    endloop
  endfacet
  facet normal 0.770513 -0.637424 0
    outer loop
      vertex 4.04508 -2.93893 0
      vertex 3.64484 -3.42274 2
      vertex 3.64484 -3.42274 0
    endloop
  endfacet
  facet normal -0.125333 -0.992115 0
    outer loop
      vertex -0.936906 -4.91144 0
      vertex -0.313952 -4.99013 2
      vertex -0.936906 -4.91144 2
    endloop
  endfacet
  facet normal -0.125333 -0.992115 -0
    outer loop
      vertex -0.313952 -4.99013 2
      vertex -0.936906 -4.91144 0
      vertex -0.313952 -4.99013 0
    endloop
  endfacet
  facet normal -0.684547 -0.728969 0
    outer loop
      vertex -3.64484 -3.42274 0
      vertex -3.18712 -3.85257 2
      vertex -3.64484 -3.42274 2
    endloop
  endfacet
  facet normal -0.684547 -0.728969 -0
    outer loop
      vertex -3.18712 -3.85257 2
      vertex -3.64484 -3.42274 0
      vertex -3.18712 -3.85257 0
    endloop
  endfacet
  facet normal -0.844329 -0.535826 0
    outer loop
      vertex -4.04508 -2.93893 0
      vertex -4.38153 -2.40877 2
      vertex -4.38153 -2.40877 0
    endloop
  endfacet
  facet normal -0.844329 -0.535826 0
    outer loop
      vertex -4.38153 -2.40877 2
      vertex -4.04508 -2.93893 0
      vertex -4.04508 -2.93893 2
    endloop
  endfacet
  facet normal -0.904827 -0.425779 0
    outer loop
      vertex -4.38153 -2.40877 0
      vertex -4.64888 -1.84062 2
      vertex -4.64888 -1.84062 0
    endloop
  endfacet
  facet normal -0.904827 -0.425779 0
    outer loop
      vertex -4.64888 -1.84062 2
      vertex -4.38153 -2.40877 0
      vertex -4.38153 -2.40877 2
    endloop
  endfacet
  facet normal -0.982287 -0.187381 0
    outer loop
      vertex -4.84292 -1.24345 0
      vertex -4.96057 -0.626666 2
      vertex -4.96057 -0.626666 0
    endloop
  endfacet
  facet normal -0.982287 -0.187381 0
    outer loop
      vertex -4.96057 -0.626666 2
      vertex -4.84292 -1.24345 0
      vertex -4.84292 -1.24345 2
    endloop
  endfacet
  facet normal -0.998027 -0.062791 0
    outer loop
      vertex -4.96057 -0.626666 0
      vertex -5 0 2
      vertex -5 0 0
    endloop
  endfacet
  facet normal -0.998027 -0.062791 0
    outer loop
      vertex -5 0 2
      vertex -4.96057 -0.626666 0
      vertex -4.96057 -0.626666 2
    endloop
  endfacet
  facet normal -0.24869 -0.968583 0
    outer loop
      vertex -1.54508 -4.75528 0
      vertex -0.936906 -4.91144 2
      vertex -1.54508 -4.75528 2
    endloop
  endfacet
  facet normal -0.24869 -0.968583 -0
    outer loop
      vertex -0.936906 -4.91144 2
      vertex -1.54508 -4.75528 0
      vertex -0.936906 -4.91144 0
    endloop
  endfacet
  facet normal -0.587785 -0.809017 0
    outer loop
      vertex -3.18712 -3.85257 0
      vertex -2.67913 -4.22164 2
      vertex -3.18712 -3.85257 2
    endloop
  endfacet
  facet normal -0.587785 -0.809017 -0
    outer loop
      vertex -2.67913 -4.22164 2
      vertex -3.18712 -3.85257 0
      vertex -2.67913 -4.22164 0
    endloop
  endfacet
  facet normal -0.368126 -0.929776 0
    outer loop
      vertex -2.1289 -4.52413 0
      vertex -1.54508 -4.75528 2
      vertex -2.1289 -4.52413 2
    endloop
  endfacet
  facet normal -0.368126 -0.929776 -0
    outer loop
      vertex -1.54508 -4.75528 2
      vertex -2.1289 -4.52413 0
      vertex -1.54508 -4.75528 0
    endloop
  endfacet
  facet normal -0.481754 -0.876307 0
    outer loop
      vertex -2.67913 -4.22164 0
      vertex -2.1289 -4.52413 2
      vertex -2.67913 -4.22164 2
    endloop
  endfacet
  facet normal -0.481754 -0.876307 -0
    outer loop
      vertex -2.1289 -4.52413 2
      vertex -2.67913 -4.22164 0
      vertex -2.1289 -4.52413 0
    endloop
  endfacet
  facet normal -0.998027 -0.062792 0
    outer loop
      vertex 2 0 0
      vertex 1.98423 0.250666 2
      vertex 1.98423 0.250666 0
    endloop
  endfacet
  facet normal -0.998027 -0.062792 0
    outer loop
      vertex 1.98423 0.250666 2
      vertex 2 0 0
      vertex 2 0 2
    endloop
  endfacet
  facet normal 0.998027 -0.062792 0
    outer loop
      vertex -2 0 2
      vertex -1.98423 0.250666 0
      vertex -1.98423 0.250666 2
    endloop
  endfacet
  facet normal 0.998027 -0.062792 0
    outer loop
      vertex -1.98423 0.250666 0
      vertex -2 0 2
      vertex -2 0 0
    endloop
  endfacet
  facet normal 0 -1 0
    outer loop
      vertex -0.125581 1.99605 0
      vertex 0.125581 1.99605 2
      vertex -0.125581 1.99605 2
    endloop
  endfacet
  facet normal 0 -1 -0
    outer loop
      vertex 0.125581 1.99605 2
      vertex -0.125581 1.99605 0
      vertex 0.125581 1.99605 0
    endloop
  endfacet
  facet normal 0 1 -0
    outer loop
      vertex 0.125581 -1.99605 0
      vertex -0.125581 -1.99605 2
      vertex 0.125581 -1.99605 2
    endloop
  endfacet
  facet normal 0 1 0
    outer loop
      vertex -0.125581 -1.99605 2
      vertex 0.125581 -1.99605 0
      vertex -0.125581 -1.99605 0
    endloop
  endfacet
  facet normal -0.684545 -0.72897 0
    outer loop
      vertex 1.27485 1.54103 0
      vertex 1.45794 1.36909 2
      vertex 1.27485 1.54103 2
    endloop
  endfacet
  facet normal -0.684545 -0.72897 -0
    outer loop
      vertex 1.45794 1.36909 2
      vertex 1.27485 1.54103 0
      vertex 1.45794 1.36909 0
    endloop
  endfacet
  facet normal 0.684545 -0.72897 0
    outer loop
      vertex -1.45794 1.36909 0
      vertex -1.27485 1.54103 2
      vertex -1.45794 1.36909 2
    endloop
  endfacet
  facet normal 0.684545 -0.72897 0
    outer loop
      vertex -1.27485 1.54103 2
      vertex -1.45794 1.36909 0
      vertex -1.27485 1.54103 0
    endloop
  endfacet
  facet normal 0.368128 -0.929775 0
    outer loop
      vertex -0.851558 1.80965 0
      vertex -0.618033 1.90211 2
      vertex -0.851558 1.80965 2
    endloop
  endfacet
  facet normal 0.368128 -0.929775 0
    outer loop
      vertex -0.618033 1.90211 2
      vertex -0.851558 1.80965 0
      vertex -0.618033 1.90211 0
    endloop
  endfacet
  facet normal -0.904827 -0.425779 0
    outer loop
      vertex 1.85955 0.736249 0
      vertex 1.75261 0.963507 2
      vertex 1.75261 0.963507 0
    endloop
  endfacet
  facet normal -0.904827 -0.425779 0
    outer loop
      vertex 1.75261 0.963507 2
      vertex 1.85955 0.736249 0
      vertex 1.85955 0.736249 2
    endloop
  endfacet
  facet normal -0.982287 -0.18738 0
    outer loop
      vertex 1.98423 0.250666 0
      vertex 1.93717 0.497379 2
      vertex 1.93717 0.497379 0
    endloop
  endfacet
  facet normal -0.982287 -0.18738 0
    outer loop
      vertex 1.93717 0.497379 2
      vertex 1.98423 0.250666 0
      vertex 1.98423 0.250666 2
    endloop
  endfacet
  facet normal -0.368128 -0.929775 0
    outer loop
      vertex 0.618033 1.90211 0
      vertex 0.851558 1.80965 2
      vertex 0.618033 1.90211 2
    endloop
  endfacet
  facet normal -0.368128 -0.929775 -0
    outer loop
      vertex 0.851558 1.80965 2
      vertex 0.618033 1.90211 0
      vertex 0.851558 1.80965 0
    endloop
  endfacet
  facet normal -0.587785 -0.809017 0
    outer loop
      vertex 1.07165 1.68865 0
      vertex 1.27485 1.54103 2
      vertex 1.07165 1.68865 2
    endloop
  endfacet
  facet normal -0.587785 -0.809017 -0
    outer loop
      vertex 1.27485 1.54103 2
      vertex 1.07165 1.68865 0
      vertex 1.27485 1.54103 0
    endloop
  endfacet
  facet normal 0.904827 -0.425779 0
    outer loop
      vertex -1.85955 0.736249 2
      vertex -1.75261 0.963507 0
      vertex -1.75261 0.963507 2
    endloop
  endfacet
  facet normal 0.904827 -0.425779 0
    outer loop
      vertex -1.75261 0.963507 0
      vertex -1.85955 0.736249 2
      vertex -1.85955 0.736249 0
    endloop
  endfacet
  facet normal 0.951056 -0.309018 0
    outer loop
      vertex -1.93717 0.497379 2
      vertex -1.85955 0.736249 0
      vertex -1.85955 0.736249 2
    endloop
  endfacet
  facet normal 0.951056 -0.309018 0
    outer loop
      vertex -1.85955 0.736249 0
      vertex -1.93717 0.497379 2
      vertex -1.93717 0.497379 0
    endloop
  endfacet
  facet normal 0.481753 -0.876307 0
    outer loop
      vertex -1.07165 1.68865 0
      vertex -0.851558 1.80965 2
      vertex -1.07165 1.68865 2
    endloop
  endfacet
  facet normal 0.481753 -0.876307 0
    outer loop
      vertex -0.851558 1.80965 2
      vertex -1.07165 1.68865 0
      vertex -0.851558 1.80965 0
    endloop
  endfacet
  facet normal 0.248688 -0.968584 0
    outer loop
      vertex -0.618033 1.90211 0
      vertex -0.374763 1.96457 2
      vertex -0.618033 1.90211 2
    endloop
  endfacet
  facet normal 0.248688 -0.968584 0
    outer loop
      vertex -0.374763 1.96457 2
      vertex -0.618033 1.90211 0
      vertex -0.374763 1.96457 0
    endloop
  endfacet
  facet normal -0.125333 0.992115 0
    outer loop
      vertex 0.374763 -1.96457 0
      vertex 0.125581 -1.99605 2
      vertex 0.374763 -1.96457 2
    endloop
  endfacet
  facet normal -0.125333 0.992115 0
    outer loop
      vertex 0.125581 -1.99605 2
      vertex 0.374763 -1.96457 0
      vertex 0.125581 -1.99605 0
    endloop
  endfacet
  facet normal -0.951056 -0.309018 0
    outer loop
      vertex 1.93717 0.497379 0
      vertex 1.85955 0.736249 2
      vertex 1.85955 0.736249 0
    endloop
  endfacet
  facet normal -0.951056 -0.309018 0
    outer loop
      vertex 1.85955 0.736249 2
      vertex 1.93717 0.497379 0
      vertex 1.93717 0.497379 2
    endloop
  endfacet
  facet normal -0.770514 -0.637423 0
    outer loop
      vertex 1.61803 1.17557 0
      vertex 1.45794 1.36909 2
      vertex 1.45794 1.36909 0
    endloop
  endfacet
  facet normal -0.770514 -0.637423 0
    outer loop
      vertex 1.45794 1.36909 2
      vertex 1.61803 1.17557 0
      vertex 1.61803 1.17557 2
    endloop
  endfacet
  facet normal -0.844328 -0.535826 0
    outer loop
      vertex 1.75261 0.963507 0
      vertex 1.61803 1.17557 2
      vertex 1.61803 1.17557 0
    endloop
  endfacet
  facet normal -0.844328 -0.535826 0
    outer loop
      vertex 1.61803 1.17557 2
      vertex 1.75261 0.963507 0
      vertex 1.75261 0.963507 2
    endloop
  endfacet
  facet normal -0.248688 -0.968584 0
    outer loop
      vertex 0.374763 1.96457 0
      vertex 0.618033 1.90211 2
      vertex 0.374763 1.96457 2
    endloop
  endfacet
  facet normal -0.248688 -0.968584 -0
    outer loop
      vertex 0.618033 1.90211 2
      vertex 0.374763 1.96457 0
      vertex 0.618033 1.90211 0
    endloop
  endfacet
  facet normal -0.125333 -0.992115 0
    outer loop
      vertex 0.125581 1.99605 0
      vertex 0.374763 1.96457 2
      vertex 0.125581 1.99605 2
    endloop
  endfacet
  facet normal -0.125333 -0.992115 -0
    outer loop
      vertex 0.374763 1.96457 2
      vertex 0.125581 1.99605 0
      vertex 0.374763 1.96457 0
    endloop
  endfacet
  facet normal -0.481753 -0.876307 0
    outer loop
      vertex 0.851558 1.80965 0
      vertex 1.07165 1.68865 2
      vertex 0.851558 1.80965 2
    endloop
  endfacet
  facet normal -0.481753 -0.876307 -0
    outer loop
      vertex 1.07165 1.68865 2
      vertex 0.851558 1.80965 0
      vertex 1.07165 1.68865 0
    endloop
  endfacet
  facet normal 0.844328 -0.535826 0
    outer loop
      vertex -1.75261 0.963507 2
      vertex -1.61803 1.17557 0
      vertex -1.61803 1.17557 2
    endloop
  endfacet
  facet normal 0.844328 -0.535826 0
    outer loop
      vertex -1.61803 1.17557 0
      vertex -1.75261 0.963507 2
      vertex -1.75261 0.963507 0
    endloop
  endfacet
  facet normal 0.770514 -0.637423 0
    outer loop
      vertex -1.61803 1.17557 2
      vertex -1.45794 1.36909 0
      vertex -1.45794 1.36909 2
    endloop
  endfacet
  facet normal 0.770514 -0.637423 0
    outer loop
      vertex -1.45794 1.36909 0
      vertex -1.61803 1.17557 2
      vertex -1.61803 1.17557 0
    endloop
  endfacet
  facet normal 0.982287 -0.18738 0
    outer loop
      vertex -1.98423 0.250666 2
      vertex -1.93717 0.497379 0
      vertex -1.93717 0.497379 2
    endloop
  endfacet
  facet normal 0.982287 -0.18738 0
    outer loop
      vertex -1.93717 0.497379 0
      vertex -1.98423 0.250666 2
      vertex -1.98423 0.250666 0
    endloop
  endfacet
  facet normal 0.587785 -0.809017 0
    outer loop
      vertex -1.27485 1.54103 0
      vertex -1.07165 1.68865 2
      vertex -1.27485 1.54103 2
    endloop
  endfacet
  facet normal 0.587785 -0.809017 0
    outer loop
      vertex -1.07165 1.68865 2
      vertex -1.27485 1.54103 0
      vertex -1.07165 1.68865 0
    endloop
  endfacet
  facet normal 0.125333 -0.992115 0
    outer loop
      vertex -0.374763 1.96457 0
      vertex -0.125581 1.99605 2
      vertex -0.374763 1.96457 2
    endloop
  endfacet
  facet normal 0.125333 -0.992115 0
    outer loop
      vertex -0.125581 1.99605 2
      vertex -0.374763 1.96457 0
      vertex -0.125581 1.99605 0
    endloop
  endfacet
  facet normal -0.982287 0.18738 0
    outer loop
      vertex 1.93717 -0.497379 0
      vertex 1.98423 -0.250666 2
      vertex 1.98423 -0.250666 0
    endloop
  endfacet
  facet normal -0.982287 0.18738 0
    outer loop
      vertex 1.98423 -0.250666 2
      vertex 1.93717 -0.497379 0
      vertex 1.93717 -0.497379 2
    endloop
  endfacet
  facet normal 0.904827 0.425779 0
    outer loop
      vertex -1.75261 -0.963507 2
      vertex -1.85955 -0.736249 0
      vertex -1.85955 -0.736249 2
    endloop
  endfacet
  facet normal 0.904827 0.425779 0
    outer loop
      vertex -1.85955 -0.736249 0
      vertex -1.75261 -0.963507 2
      vertex -1.75261 -0.963507 0
    endloop
  endfacet
  facet normal 0.844328 0.535826 0
    outer loop
      vertex -1.61803 -1.17557 2
      vertex -1.75261 -0.963507 0
      vertex -1.75261 -0.963507 2
    endloop
  endfacet
  facet normal 0.844328 0.535826 0
    outer loop
      vertex -1.75261 -0.963507 0
      vertex -1.61803 -1.17557 2
      vertex -1.61803 -1.17557 0
    endloop
  endfacet
  facet normal -0.481753 0.876307 0
    outer loop
      vertex 1.07165 -1.68865 0
      vertex 0.851558 -1.80965 2
      vertex 1.07165 -1.68865 2
    endloop
  endfacet
  facet normal -0.481753 0.876307 0
    outer loop
      vertex 0.851558 -1.80965 2
      vertex 1.07165 -1.68865 0
      vertex 0.851558 -1.80965 0
    endloop
  endfacet
  facet normal -0.770514 0.637423 0
    outer loop
      vertex 1.45794 -1.36909 0
      vertex 1.61803 -1.17557 2
      vertex 1.61803 -1.17557 0
    endloop
  endfacet
  facet normal -0.770514 0.637423 0
    outer loop
      vertex 1.61803 -1.17557 2
      vertex 1.45794 -1.36909 0
      vertex 1.45794 -1.36909 2
    endloop
  endfacet
  facet normal -0.904827 0.425779 0
    outer loop
      vertex 1.75261 -0.963507 0
      vertex 1.85955 -0.736249 2
      vertex 1.85955 -0.736249 0
    endloop
  endfacet
  facet normal -0.904827 0.425779 0
    outer loop
      vertex 1.85955 -0.736249 2
      vertex 1.75261 -0.963507 0
      vertex 1.75261 -0.963507 2
    endloop
  endfacet
  facet normal -0.998027 0.062792 0
    outer loop
      vertex 1.98423 -0.250666 0
      vertex 2 0 2
      vertex 2 0 0
    endloop
  endfacet
  facet normal -0.998027 0.062792 0
    outer loop
      vertex 2 0 2
      vertex 1.98423 -0.250666 0
      vertex 1.98423 -0.250666 2
    endloop
  endfacet
  facet normal 0.770514 0.637423 0
    outer loop
      vertex -1.45794 -1.36909 2
      vertex -1.61803 -1.17557 0
      vertex -1.61803 -1.17557 2
    endloop
  endfacet
  facet normal 0.770514 0.637423 0
    outer loop
      vertex -1.61803 -1.17557 0
      vertex -1.45794 -1.36909 2
      vertex -1.45794 -1.36909 0
    endloop
  endfacet
  facet normal 0.951056 0.309018 0
    outer loop
      vertex -1.85955 -0.736249 2
      vertex -1.93717 -0.497379 0
      vertex -1.93717 -0.497379 2
    endloop
  endfacet
  facet normal 0.951056 0.309018 0
    outer loop
      vertex -1.93717 -0.497379 0
      vertex -1.85955 -0.736249 2
      vertex -1.85955 -0.736249 0
    endloop
  endfacet
  facet normal 0.998027 0.062792 0
    outer loop
      vertex -1.98423 -0.250666 2
      vertex -2 0 0
      vertex -2 0 2
    endloop
  endfacet
  facet normal 0.998027 0.062792 0
    outer loop
      vertex -2 0 0
      vertex -1.98423 -0.250666 2
      vertex -1.98423 -0.250666 0
    endloop
  endfacet
  facet normal -0.587785 0.809017 0
    outer loop
      vertex 1.27485 -1.54103 0
      vertex 1.07165 -1.68865 2
      vertex 1.27485 -1.54103 2
    endloop
  endfacet
  facet normal -0.587785 0.809017 0
    outer loop
      vertex 1.07165 -1.68865 2
      vertex 1.27485 -1.54103 0
      vertex 1.07165 -1.68865 0
    endloop
  endfacet
  facet normal -0.368128 0.929775 0
    outer loop
      vertex 0.851558 -1.80965 0
      vertex 0.618033 -1.90211 2
      vertex 0.851558 -1.80965 2
    endloop
  endfacet
  facet normal -0.368128 0.929775 0
    outer loop
      vertex 0.618033 -1.90211 2
      vertex 0.851558 -1.80965 0
      vertex 0.618033 -1.90211 0
    endloop
  endfacet
  facet normal -0.248688 0.968584 0
    outer loop
      vertex 0.618033 -1.90211 0
      vertex 0.374763 -1.96457 2
      vertex 0.618033 -1.90211 2
    endloop
  endfacet
  facet normal -0.248688 0.968584 0
    outer loop
      vertex 0.374763 -1.96457 2
      vertex 0.618033 -1.90211 0
      vertex 0.374763 -1.96457 0
    endloop
  endfacet
  facet normal -0.844328 0.535826 0
    outer loop
      vertex 1.61803 -1.17557 0
      vertex 1.75261 -0.963507 2
      vertex 1.75261 -0.963507 0
    endloop
  endfacet
  facet normal -0.844328 0.535826 0
    outer loop
      vertex 1.75261 -0.963507 2
      vertex 1.61803 -1.17557 0
      vertex 1.61803 -1.17557 2
    endloop
  endfacet
  facet normal -0.951056 0.309018 0
    outer loop
      vertex 1.85955 -0.736249 0
      vertex 1.93717 -0.497379 2
      vertex 1.93717 -0.497379 0
    endloop
  endfacet
  facet normal -0.951056 0.309018 0
    outer loop
      vertex 1.93717 -0.497379 2
      vertex 1.85955 -0.736249 0
      vertex 1.85955 -0.736249 2
    endloop
  endfacet
  facet normal 0.248688 0.968584 -0
    outer loop
      vertex -0.374763 -1.96457 0
      vertex -0.618033 -1.90211 2
      vertex -0.374763 -1.96457 2
    endloop
  endfacet
  facet normal 0.248688 0.968584 0
    outer loop
      vertex -0.618033 -1.90211 2
      vertex -0.374763 -1.96457 0
      vertex -0.618033 -1.90211 0
    endloop
  endfacet
  facet normal 0.982287 0.18738 0
    outer loop
      vertex -1.93717 -0.497379 2
      vertex -1.98423 -0.250666 0
      vertex -1.98423 -0.250666 2
    endloop
  endfacet
  facet normal 0.982287 0.18738 0
    outer loop
      vertex -1.98423 -0.250666 0
      vertex -1.93717 -0.497379 2
      vertex -1.93717 -0.497379 0
    endloop
  endfacet
  facet normal -0.684545 0.72897 0
    outer loop
      vertex 1.45794 -1.36909 0
      vertex 1.27485 -1.54103 2
      vertex 1.45794 -1.36909 2
    endloop
  endfacet
  facet normal -0.684545 0.72897 0
    outer loop
      vertex 1.27485 -1.54103 2
      vertex 1.45794 -1.36909 0
      vertex 1.27485 -1.54103 0
    endloop
  endfacet
  facet normal 0.684545 0.72897 -0
    outer loop
      vertex -1.27485 -1.54103 0
      vertex -1.45794 -1.36909 2
      vertex -1.27485 -1.54103 2
    endloop
  endfacet
  facet normal 0.684545 0.72897 0
    outer loop
      vertex -1.45794 -1.36909 2
      vertex -1.27485 -1.54103 0
      vertex -1.45794 -1.36909 0
    endloop
  endfacet
  facet normal 0.481753 0.876307 -0
    outer loop
      vertex -0.851558 -1.80965 0
      vertex -1.07165 -1.68865 2
      vertex -0.851558 -1.80965 2
    endloop
  endfacet
  facet normal 0.481753 0.876307 0
    outer loop
      vertex -1.07165 -1.68865 2
      vertex -0.851558 -1.80965 0
      vertex -1.07165 -1.68865 0
    endloop
  endfacet
  facet normal 0.125333 0.992115 -0
    outer loop
      vertex -0.125581 -1.99605 0
      vertex -0.374763 -1.96457 2
      vertex -0.125581 -1.99605 2
    endloop
  endfacet
  facet normal 0.125333 0.992115 0
    outer loop
      vertex -0.374763 -1.96457 2
      vertex -0.125581 -1.99605 0
      vertex -0.374763 -1.96457 0
    endloop
  endfacet
  facet normal 0.587785 0.809017 -0
    outer loop
      vertex -1.07165 -1.68865 0
      vertex -1.27485 -1.54103 2
      vertex -1.07165 -1.68865 2
    endloop
  endfacet
  facet normal 0.587785 0.809017 0
    outer loop
      vertex -1.27485 -1.54103 2
      vertex -1.07165 -1.68865 0
      vertex -1.27485 -1.54103 0
    endloop
  endfacet
  facet normal 0.368128 0.929775 -0
    outer loop
      vertex -0.618033 -1.90211 0
      vertex -0.851558 -1.80965 2
      vertex -0.618033 -1.90211 2
    endloop
  endfacet
  facet normal 0.368128 0.929775 0
    outer loop
      vertex -0.851558 -1.80965 2
      vertex -0.618033 -1.90211 0
      vertex -0.851558 -1.80965 0
    endloop
  endfacet
endsolid OpenSCAD_Model
